<mxfile host="Electron" agent="Mozilla/5.0 (Windows NT 10.0; Win64; x64) AppleWebKit/537.36 (KHTML, like Gecko) draw.io/26.2.2 Chrome/134.0.6998.178 Electron/35.1.2 Safari/537.36" version="26.2.2">
  <diagram name="Seite-1" id="tsrc8ydOF3_2nM63vob0">
    <mxGraphModel dx="2068" dy="2404" grid="1" gridSize="10" guides="1" tooltips="1" connect="1" arrows="1" fold="1" page="1" pageScale="1" pageWidth="827" pageHeight="1169" math="0" shadow="0">
      <root>
        <mxCell id="0" />
        <mxCell id="1" parent="0" />
        <mxCell id="QP1Ot8ZAfSgMZhXPvZnd-15" style="edgeStyle=orthogonalEdgeStyle;shape=connector;rounded=0;orthogonalLoop=1;jettySize=auto;html=1;exitX=1;exitY=0.5;exitDx=0;exitDy=0;entryX=0;entryY=0.5;entryDx=0;entryDy=0;strokeColor=#788AA3;align=center;verticalAlign=middle;fontFamily=Helvetica;fontSize=11;fontColor=default;labelBackgroundColor=none;startFill=0;endArrow=none;" edge="1" parent="1" source="QP1Ot8ZAfSgMZhXPvZnd-40" target="QP1Ot8ZAfSgMZhXPvZnd-16">
          <mxGeometry relative="1" as="geometry">
            <mxPoint x="370" y="170" as="targetPoint" />
          </mxGeometry>
        </mxCell>
        <mxCell id="QP1Ot8ZAfSgMZhXPvZnd-21" style="edgeStyle=orthogonalEdgeStyle;rounded=0;orthogonalLoop=1;jettySize=auto;html=1;exitX=1;exitY=0.5;exitDx=0;exitDy=0;entryX=0;entryY=0.5;entryDx=0;entryDy=0;strokeColor=#788AA3;fontColor=#46495D;fillColor=#B2C9AB;endArrow=none;startFill=0;" edge="1" parent="1" source="QP1Ot8ZAfSgMZhXPvZnd-8" target="QP1Ot8ZAfSgMZhXPvZnd-67">
          <mxGeometry relative="1" as="geometry">
            <mxPoint x="370" y="5" as="targetPoint" />
          </mxGeometry>
        </mxCell>
        <mxCell id="QP1Ot8ZAfSgMZhXPvZnd-49" style="edgeStyle=orthogonalEdgeStyle;shape=connector;rounded=0;orthogonalLoop=1;jettySize=auto;html=1;exitX=1;exitY=0;exitDx=0;exitDy=0;entryX=0;entryY=0.5;entryDx=0;entryDy=0;strokeColor=#788AA3;align=center;verticalAlign=middle;fontFamily=Helvetica;fontSize=11;fontColor=#46495D;labelBackgroundColor=default;startFill=0;endArrow=none;fillColor=#B2C9AB;" edge="1" parent="1" source="QP1Ot8ZAfSgMZhXPvZnd-1" target="QP1Ot8ZAfSgMZhXPvZnd-48">
          <mxGeometry relative="1" as="geometry">
            <Array as="points">
              <mxPoint x="330" y="140" />
              <mxPoint x="330" y="110" />
            </Array>
          </mxGeometry>
        </mxCell>
        <mxCell id="QP1Ot8ZAfSgMZhXPvZnd-1" value="Book" style="rounded=1;whiteSpace=wrap;html=1;labelBackgroundColor=none;fillColor=#B2C9AB;strokeColor=#788AA3;fontColor=#46495D;" vertex="1" parent="1">
          <mxGeometry x="190" y="140" width="120" height="60" as="geometry" />
        </mxCell>
        <mxCell id="QP1Ot8ZAfSgMZhXPvZnd-27" style="edgeStyle=orthogonalEdgeStyle;shape=connector;rounded=0;orthogonalLoop=1;jettySize=auto;html=1;exitX=0.575;exitY=0.033;exitDx=0;exitDy=0;entryX=0.5;entryY=1;entryDx=0;entryDy=0;strokeColor=#788AA3;align=center;verticalAlign=middle;fontFamily=Helvetica;fontSize=11;fontColor=#46495D;labelBackgroundColor=default;startFill=0;endArrow=classic;fillColor=#B2C9AB;endFill=1;exitPerimeter=0;" edge="1" parent="1" source="QP1Ot8ZAfSgMZhXPvZnd-2" target="QP1Ot8ZAfSgMZhXPvZnd-23">
          <mxGeometry relative="1" as="geometry" />
        </mxCell>
        <mxCell id="QP1Ot8ZAfSgMZhXPvZnd-2" value="Jornal" style="rounded=1;whiteSpace=wrap;html=1;labelBackgroundColor=none;fillColor=#B2C9AB;strokeColor=#788AA3;fontColor=#46495D;" vertex="1" parent="1">
          <mxGeometry x="390" y="300" width="120" height="60" as="geometry" />
        </mxCell>
        <mxCell id="QP1Ot8ZAfSgMZhXPvZnd-7" value="" style="edgeStyle=orthogonalEdgeStyle;rounded=0;orthogonalLoop=1;jettySize=auto;html=1;strokeColor=#788AA3;fontColor=default;endArrow=none;startFill=0;labelBackgroundColor=none;" edge="1" parent="1" source="QP1Ot8ZAfSgMZhXPvZnd-3" target="QP1Ot8ZAfSgMZhXPvZnd-1">
          <mxGeometry relative="1" as="geometry" />
        </mxCell>
        <mxCell id="QP1Ot8ZAfSgMZhXPvZnd-3" value="publishing house" style="rounded=1;whiteSpace=wrap;html=1;labelBackgroundColor=none;fillColor=#B2C9AB;strokeColor=#788AA3;fontColor=#46495D;shape=ellipse;perimeter=ellipsePerimeter;" vertex="1" parent="1">
          <mxGeometry x="30" y="125" width="120" height="40" as="geometry" />
        </mxCell>
        <mxCell id="QP1Ot8ZAfSgMZhXPvZnd-36" value="" style="edgeStyle=orthogonalEdgeStyle;shape=connector;rounded=0;orthogonalLoop=1;jettySize=auto;html=1;strokeColor=#788AA3;align=center;verticalAlign=middle;fontFamily=Helvetica;fontSize=11;fontColor=#46495D;labelBackgroundColor=default;startFill=0;endArrow=none;fillColor=#B2C9AB;entryX=0.5;entryY=1;entryDx=0;entryDy=0;" edge="1" parent="1" source="QP1Ot8ZAfSgMZhXPvZnd-4" target="QP1Ot8ZAfSgMZhXPvZnd-2">
          <mxGeometry relative="1" as="geometry">
            <mxPoint x="450" y="480" as="targetPoint" />
          </mxGeometry>
        </mxCell>
        <mxCell id="QP1Ot8ZAfSgMZhXPvZnd-4" value="article" style="rounded=1;whiteSpace=wrap;html=1;labelBackgroundColor=none;fillColor=#B2C9AB;strokeColor=#788AA3;fontColor=#46495D;" vertex="1" parent="1">
          <mxGeometry x="390" y="420" width="120" height="60" as="geometry" />
        </mxCell>
        <mxCell id="QP1Ot8ZAfSgMZhXPvZnd-5" value="subject area" style="rounded=1;whiteSpace=wrap;html=1;labelBackgroundColor=none;fillColor=#B2C9AB;strokeColor=#788AA3;fontColor=#46495D;" vertex="1" parent="1">
          <mxGeometry x="1140" y="140" width="120" height="60" as="geometry" />
        </mxCell>
        <mxCell id="QP1Ot8ZAfSgMZhXPvZnd-33" value="" style="edgeStyle=orthogonalEdgeStyle;shape=connector;rounded=0;orthogonalLoop=1;jettySize=auto;html=1;strokeColor=#788AA3;align=center;verticalAlign=middle;fontFamily=Helvetica;fontSize=11;fontColor=#46495D;labelBackgroundColor=default;startFill=0;endArrow=none;fillColor=#B2C9AB;" edge="1" parent="1" source="QP1Ot8ZAfSgMZhXPvZnd-6" target="QP1Ot8ZAfSgMZhXPvZnd-31">
          <mxGeometry relative="1" as="geometry" />
        </mxCell>
        <mxCell id="QP1Ot8ZAfSgMZhXPvZnd-6" value="author" style="rounded=1;whiteSpace=wrap;html=1;labelBackgroundColor=none;fillColor=#B2C9AB;strokeColor=#788AA3;fontColor=#46495D;" vertex="1" parent="1">
          <mxGeometry x="590" y="290" width="120" height="60" as="geometry" />
        </mxCell>
        <mxCell id="QP1Ot8ZAfSgMZhXPvZnd-17" style="edgeStyle=orthogonalEdgeStyle;shape=connector;rounded=0;orthogonalLoop=1;jettySize=auto;html=1;exitX=0.5;exitY=1;exitDx=0;exitDy=0;entryX=0.5;entryY=0;entryDx=0;entryDy=0;strokeColor=#788AA3;align=center;verticalAlign=middle;fontFamily=Helvetica;fontSize=11;fontColor=default;labelBackgroundColor=none;startFill=0;endArrow=none;" edge="1" parent="1" source="QP1Ot8ZAfSgMZhXPvZnd-55" target="QP1Ot8ZAfSgMZhXPvZnd-1">
          <mxGeometry relative="1" as="geometry" />
        </mxCell>
        <mxCell id="QP1Ot8ZAfSgMZhXPvZnd-8" value="copies" style="rounded=1;whiteSpace=wrap;html=1;labelBackgroundColor=none;fillColor=#B2C9AB;strokeColor=#788AA3;fontColor=#46495D;" vertex="1" parent="1">
          <mxGeometry x="190" y="30" width="120" height="60" as="geometry" />
        </mxCell>
        <mxCell id="QP1Ot8ZAfSgMZhXPvZnd-13" value="" style="edgeStyle=orthogonalEdgeStyle;shape=connector;rounded=0;orthogonalLoop=1;jettySize=auto;html=1;exitX=0;exitY=0.5;exitDx=0;exitDy=0;entryX=1;entryY=0.5;entryDx=0;entryDy=0;strokeColor=#788AA3;align=center;verticalAlign=middle;fontFamily=Helvetica;fontSize=11;fontColor=default;labelBackgroundColor=none;startFill=0;endArrow=none;" edge="1" parent="1" source="QP1Ot8ZAfSgMZhXPvZnd-5" target="QP1Ot8ZAfSgMZhXPvZnd-16">
          <mxGeometry relative="1" as="geometry">
            <mxPoint x="440" y="90" as="sourcePoint" />
            <mxPoint x="524" y="170" as="targetPoint" />
          </mxGeometry>
        </mxCell>
        <mxCell id="QP1Ot8ZAfSgMZhXPvZnd-16" value="assigned to" style="rhombus;whiteSpace=wrap;html=1;strokeColor=#788AA3;fontFamily=Helvetica;fontSize=11;fontColor=#46495D;labelBackgroundColor=none;fillColor=#B2C9AB;" vertex="1" parent="1">
          <mxGeometry x="1030" y="155" width="80" height="30" as="geometry" />
        </mxCell>
        <mxCell id="QP1Ot8ZAfSgMZhXPvZnd-29" value="" style="edgeStyle=orthogonalEdgeStyle;shape=connector;rounded=0;orthogonalLoop=1;jettySize=auto;html=1;strokeColor=#788AA3;align=center;verticalAlign=middle;fontFamily=Helvetica;fontSize=11;fontColor=#46495D;labelBackgroundColor=default;startFill=0;endArrow=none;fillColor=#B2C9AB;" edge="1" parent="1" source="QP1Ot8ZAfSgMZhXPvZnd-19" target="QP1Ot8ZAfSgMZhXPvZnd-28">
          <mxGeometry relative="1" as="geometry" />
        </mxCell>
        <mxCell id="QP1Ot8ZAfSgMZhXPvZnd-19" value="customer" style="rounded=1;whiteSpace=wrap;html=1;labelBackgroundColor=none;fillColor=#B2C9AB;strokeColor=#788AA3;fontColor=#46495D;" vertex="1" parent="1">
          <mxGeometry x="590" y="-70" width="120" height="60" as="geometry" />
        </mxCell>
        <mxCell id="QP1Ot8ZAfSgMZhXPvZnd-45" style="edgeStyle=orthogonalEdgeStyle;shape=connector;rounded=0;orthogonalLoop=1;jettySize=auto;html=1;exitX=0.983;exitY=0.383;exitDx=0;exitDy=0;entryX=0;entryY=0.5;entryDx=0;entryDy=0;strokeColor=#788AA3;align=center;verticalAlign=middle;fontFamily=Helvetica;fontSize=11;fontColor=#46495D;labelBackgroundColor=default;startFill=0;endArrow=none;fillColor=#B2C9AB;exitPerimeter=0;" edge="1" parent="1" source="QP1Ot8ZAfSgMZhXPvZnd-67" target="QP1Ot8ZAfSgMZhXPvZnd-19">
          <mxGeometry relative="1" as="geometry">
            <mxPoint x="490" y="5" as="sourcePoint" />
          </mxGeometry>
        </mxCell>
        <mxCell id="QP1Ot8ZAfSgMZhXPvZnd-24" value="" style="edgeStyle=orthogonalEdgeStyle;shape=connector;rounded=0;orthogonalLoop=1;jettySize=auto;html=1;exitX=1;exitY=0.5;exitDx=0;exitDy=0;entryX=0;entryY=0.5;entryDx=0;entryDy=0;strokeColor=#788AA3;align=center;verticalAlign=middle;fontFamily=Helvetica;fontSize=11;fontColor=default;labelBackgroundColor=none;startFill=0;endArrow=classic;endFill=1;" edge="1" parent="1" source="QP1Ot8ZAfSgMZhXPvZnd-1" target="QP1Ot8ZAfSgMZhXPvZnd-23">
          <mxGeometry relative="1" as="geometry">
            <mxPoint x="310" y="170" as="sourcePoint" />
            <mxPoint x="1000" y="210" as="targetPoint" />
          </mxGeometry>
        </mxCell>
        <mxCell id="QP1Ot8ZAfSgMZhXPvZnd-23" value="is-a" style="whiteSpace=wrap;html=1;strokeColor=#788AA3;fontFamily=Helvetica;fontSize=11;fontColor=#46495D;labelBackgroundColor=none;fillColor=#B2C9AB;shape=hexagon;perimeter=hexagonPerimeter2;fixedSize=1;" vertex="1" parent="1">
          <mxGeometry x="430" y="155" width="60" height="30" as="geometry" />
        </mxCell>
        <mxCell id="QP1Ot8ZAfSgMZhXPvZnd-26" value="" style="edgeStyle=orthogonalEdgeStyle;shape=connector;rounded=0;orthogonalLoop=1;jettySize=auto;html=1;exitX=1;exitY=0.5;exitDx=0;exitDy=0;entryX=0;entryY=0.5;entryDx=0;entryDy=0;strokeColor=#788AA3;align=center;verticalAlign=middle;fontFamily=Helvetica;fontSize=11;fontColor=default;labelBackgroundColor=none;startFill=0;endArrow=none;" edge="1" parent="1" source="QP1Ot8ZAfSgMZhXPvZnd-23" target="QP1Ot8ZAfSgMZhXPvZnd-25">
          <mxGeometry relative="1" as="geometry">
            <mxPoint x="490" y="170" as="sourcePoint" />
            <mxPoint x="1000" y="210" as="targetPoint" />
          </mxGeometry>
        </mxCell>
        <mxCell id="QP1Ot8ZAfSgMZhXPvZnd-30" value="" style="edgeStyle=orthogonalEdgeStyle;shape=connector;rounded=0;orthogonalLoop=1;jettySize=auto;html=1;strokeColor=#788AA3;align=center;verticalAlign=middle;fontFamily=Helvetica;fontSize=11;fontColor=#46495D;labelBackgroundColor=default;startFill=0;endArrow=none;fillColor=#B2C9AB;" edge="1" parent="1" source="QP1Ot8ZAfSgMZhXPvZnd-25" target="QP1Ot8ZAfSgMZhXPvZnd-28">
          <mxGeometry relative="1" as="geometry" />
        </mxCell>
        <mxCell id="QP1Ot8ZAfSgMZhXPvZnd-58" style="edgeStyle=orthogonalEdgeStyle;shape=connector;rounded=0;orthogonalLoop=1;jettySize=auto;html=1;exitX=1;exitY=1;exitDx=0;exitDy=0;entryX=0;entryY=0;entryDx=0;entryDy=0;strokeColor=#788AA3;align=center;verticalAlign=middle;fontFamily=Helvetica;fontSize=11;fontColor=#46495D;labelBackgroundColor=default;startFill=0;endArrow=none;fillColor=#B2C9AB;" edge="1" parent="1" source="QP1Ot8ZAfSgMZhXPvZnd-59" target="QP1Ot8ZAfSgMZhXPvZnd-57">
          <mxGeometry relative="1" as="geometry" />
        </mxCell>
        <mxCell id="QP1Ot8ZAfSgMZhXPvZnd-25" value="Publication" style="rounded=1;whiteSpace=wrap;html=1;labelBackgroundColor=none;fillColor=#B2C9AB;strokeColor=#788AA3;fontColor=#46495D;" vertex="1" parent="1">
          <mxGeometry x="590" y="140" width="120" height="60" as="geometry" />
        </mxCell>
        <mxCell id="QP1Ot8ZAfSgMZhXPvZnd-28" value="reads" style="rhombus;whiteSpace=wrap;html=1;strokeColor=#788AA3;fontFamily=Helvetica;fontSize=11;fontColor=#46495D;labelBackgroundColor=none;fillColor=#B2C9AB;" vertex="1" parent="1">
          <mxGeometry x="625" y="65" width="50" height="30" as="geometry" />
        </mxCell>
        <mxCell id="QP1Ot8ZAfSgMZhXPvZnd-32" value="" style="edgeStyle=orthogonalEdgeStyle;shape=connector;rounded=0;orthogonalLoop=1;jettySize=auto;html=1;strokeColor=#788AA3;align=center;verticalAlign=middle;fontFamily=Helvetica;fontSize=11;fontColor=#46495D;labelBackgroundColor=default;startFill=0;endArrow=none;fillColor=#B2C9AB;" edge="1" parent="1" source="QP1Ot8ZAfSgMZhXPvZnd-31" target="QP1Ot8ZAfSgMZhXPvZnd-25">
          <mxGeometry relative="1" as="geometry" />
        </mxCell>
        <mxCell id="QP1Ot8ZAfSgMZhXPvZnd-31" value="written by" style="rhombus;whiteSpace=wrap;html=1;strokeColor=#788AA3;fontFamily=Helvetica;fontSize=11;fontColor=#46495D;labelBackgroundColor=none;fillColor=#B2C9AB;" vertex="1" parent="1">
          <mxGeometry x="615" y="230" width="70" height="30" as="geometry" />
        </mxCell>
        <mxCell id="QP1Ot8ZAfSgMZhXPvZnd-44" value="" style="edgeStyle=orthogonalEdgeStyle;shape=connector;rounded=0;orthogonalLoop=1;jettySize=auto;html=1;strokeColor=#788AA3;align=center;verticalAlign=middle;fontFamily=Helvetica;fontSize=11;fontColor=#46495D;labelBackgroundColor=default;startFill=0;endArrow=none;fillColor=#B2C9AB;" edge="1" parent="1" source="QP1Ot8ZAfSgMZhXPvZnd-37" target="QP1Ot8ZAfSgMZhXPvZnd-1">
          <mxGeometry relative="1" as="geometry" />
        </mxCell>
        <mxCell id="QP1Ot8ZAfSgMZhXPvZnd-37" value="translation template" style="rounded=1;whiteSpace=wrap;html=1;labelBackgroundColor=none;fillColor=#B2C9AB;strokeColor=#788AA3;fontColor=#46495D;" vertex="1" parent="1">
          <mxGeometry x="190" y="240" width="120" height="60" as="geometry" />
        </mxCell>
        <mxCell id="QP1Ot8ZAfSgMZhXPvZnd-61" style="edgeStyle=orthogonalEdgeStyle;shape=connector;rounded=0;orthogonalLoop=1;jettySize=auto;html=1;exitX=1;exitY=0.5;exitDx=0;exitDy=0;entryX=0.5;entryY=0;entryDx=0;entryDy=0;strokeColor=#788AA3;align=center;verticalAlign=middle;fontFamily=Helvetica;fontSize=11;fontColor=#46495D;labelBackgroundColor=default;startFill=0;endArrow=none;fillColor=#B2C9AB;" edge="1" parent="1" source="QP1Ot8ZAfSgMZhXPvZnd-38" target="QP1Ot8ZAfSgMZhXPvZnd-67">
          <mxGeometry relative="1" as="geometry">
            <mxPoint x="430" y="-10" as="targetPoint" />
          </mxGeometry>
        </mxCell>
        <mxCell id="QP1Ot8ZAfSgMZhXPvZnd-38" value="employee" style="rounded=1;whiteSpace=wrap;html=1;labelBackgroundColor=none;fillColor=#B2C9AB;strokeColor=#788AA3;fontColor=#46495D;" vertex="1" parent="1">
          <mxGeometry x="200" y="-120" width="120" height="60" as="geometry" />
        </mxCell>
        <mxCell id="QP1Ot8ZAfSgMZhXPvZnd-41" value="" style="edgeStyle=orthogonalEdgeStyle;shape=connector;rounded=0;orthogonalLoop=1;jettySize=auto;html=1;exitX=1;exitY=0.5;exitDx=0;exitDy=0;entryX=0;entryY=0.5;entryDx=0;entryDy=0;strokeColor=#788AA3;align=center;verticalAlign=middle;fontFamily=Helvetica;fontSize=11;fontColor=default;labelBackgroundColor=none;startFill=0;endArrow=none;" edge="1" parent="1" source="QP1Ot8ZAfSgMZhXPvZnd-42" target="QP1Ot8ZAfSgMZhXPvZnd-40">
          <mxGeometry relative="1" as="geometry">
            <mxPoint x="710" y="170" as="sourcePoint" />
            <mxPoint x="1130" y="170" as="targetPoint" />
          </mxGeometry>
        </mxCell>
        <mxCell id="QP1Ot8ZAfSgMZhXPvZnd-40" value="shelf" style="rounded=1;whiteSpace=wrap;html=1;labelBackgroundColor=none;fillColor=#B2C9AB;strokeColor=#788AA3;fontColor=#46495D;" vertex="1" parent="1">
          <mxGeometry x="870" y="140" width="120" height="60" as="geometry" />
        </mxCell>
        <mxCell id="QP1Ot8ZAfSgMZhXPvZnd-43" value="" style="edgeStyle=orthogonalEdgeStyle;shape=connector;rounded=0;orthogonalLoop=1;jettySize=auto;html=1;exitX=1;exitY=0.5;exitDx=0;exitDy=0;entryX=0;entryY=0.5;entryDx=0;entryDy=0;strokeColor=#788AA3;align=center;verticalAlign=middle;fontFamily=Helvetica;fontSize=11;fontColor=default;labelBackgroundColor=none;startFill=0;endArrow=none;" edge="1" parent="1" source="QP1Ot8ZAfSgMZhXPvZnd-25" target="QP1Ot8ZAfSgMZhXPvZnd-42">
          <mxGeometry relative="1" as="geometry">
            <mxPoint x="710" y="170" as="sourcePoint" />
            <mxPoint x="930" y="170" as="targetPoint" />
          </mxGeometry>
        </mxCell>
        <mxCell id="QP1Ot8ZAfSgMZhXPvZnd-42" value="stored on" style="rhombus;whiteSpace=wrap;html=1;strokeColor=#788AA3;fontFamily=Helvetica;fontSize=11;fontColor=#46495D;labelBackgroundColor=none;fillColor=#B2C9AB;" vertex="1" parent="1">
          <mxGeometry x="757" y="155" width="70" height="30" as="geometry" />
        </mxCell>
        <mxCell id="QP1Ot8ZAfSgMZhXPvZnd-50" style="edgeStyle=orthogonalEdgeStyle;shape=connector;rounded=0;orthogonalLoop=1;jettySize=auto;html=1;exitX=1;exitY=0.5;exitDx=0;exitDy=0;entryX=0;entryY=1;entryDx=0;entryDy=0;strokeColor=#788AA3;align=center;verticalAlign=middle;fontFamily=Helvetica;fontSize=11;fontColor=#46495D;labelBackgroundColor=default;startFill=0;endArrow=none;fillColor=#B2C9AB;" edge="1" parent="1" source="QP1Ot8ZAfSgMZhXPvZnd-48" target="QP1Ot8ZAfSgMZhXPvZnd-19">
          <mxGeometry relative="1" as="geometry" />
        </mxCell>
        <mxCell id="QP1Ot8ZAfSgMZhXPvZnd-48" value="reserve" style="rhombus;whiteSpace=wrap;html=1;strokeColor=#788AA3;fontFamily=Helvetica;fontSize=11;fontColor=#46495D;labelBackgroundColor=none;fillColor=#B2C9AB;" vertex="1" parent="1">
          <mxGeometry x="460" y="95" width="60" height="30" as="geometry" />
        </mxCell>
        <mxCell id="QP1Ot8ZAfSgMZhXPvZnd-56" value="" style="edgeStyle=orthogonalEdgeStyle;shape=connector;rounded=0;orthogonalLoop=1;jettySize=auto;html=1;exitX=0.5;exitY=1;exitDx=0;exitDy=0;entryX=0.5;entryY=0;entryDx=0;entryDy=0;strokeColor=#788AA3;align=center;verticalAlign=middle;fontFamily=Helvetica;fontSize=11;fontColor=default;labelBackgroundColor=none;startFill=0;endArrow=none;" edge="1" parent="1" source="QP1Ot8ZAfSgMZhXPvZnd-8" target="QP1Ot8ZAfSgMZhXPvZnd-55">
          <mxGeometry relative="1" as="geometry">
            <mxPoint x="250" y="90" as="sourcePoint" />
            <mxPoint x="250" y="140" as="targetPoint" />
          </mxGeometry>
        </mxCell>
        <mxCell id="QP1Ot8ZAfSgMZhXPvZnd-55" value="are multiblications of" style="rhombus;whiteSpace=wrap;html=1;strokeColor=#788AA3;fontFamily=Helvetica;fontSize=11;fontColor=#46495D;labelBackgroundColor=none;fillColor=#B2C9AB;" vertex="1" parent="1">
          <mxGeometry x="190" y="100" width="120" height="30" as="geometry" />
        </mxCell>
        <mxCell id="QP1Ot8ZAfSgMZhXPvZnd-57" value="Keywords" style="rounded=1;whiteSpace=wrap;html=1;labelBackgroundColor=none;fillColor=#B2C9AB;strokeColor=#788AA3;fontColor=#46495D;" vertex="1" parent="1">
          <mxGeometry x="840" y="280" width="120" height="60" as="geometry" />
        </mxCell>
        <mxCell id="QP1Ot8ZAfSgMZhXPvZnd-60" value="" style="edgeStyle=orthogonalEdgeStyle;shape=connector;rounded=0;orthogonalLoop=1;jettySize=auto;html=1;exitX=1;exitY=1;exitDx=0;exitDy=0;entryX=0;entryY=0;entryDx=0;entryDy=0;strokeColor=#788AA3;align=center;verticalAlign=middle;fontFamily=Helvetica;fontSize=11;fontColor=#46495D;labelBackgroundColor=default;startFill=0;endArrow=none;fillColor=#B2C9AB;" edge="1" parent="1" source="QP1Ot8ZAfSgMZhXPvZnd-25" target="QP1Ot8ZAfSgMZhXPvZnd-59">
          <mxGeometry relative="1" as="geometry">
            <mxPoint x="710" y="200" as="sourcePoint" />
            <mxPoint x="770" y="280" as="targetPoint" />
          </mxGeometry>
        </mxCell>
        <mxCell id="QP1Ot8ZAfSgMZhXPvZnd-59" value="contain" style="rhombus;whiteSpace=wrap;html=1;strokeColor=#788AA3;fontFamily=Helvetica;fontSize=11;fontColor=#46495D;labelBackgroundColor=none;fillColor=#B2C9AB;" vertex="1" parent="1">
          <mxGeometry x="710" y="230" width="70" height="30" as="geometry" />
        </mxCell>
        <mxCell id="QP1Ot8ZAfSgMZhXPvZnd-66" style="edgeStyle=orthogonalEdgeStyle;shape=connector;rounded=0;orthogonalLoop=1;jettySize=auto;html=1;entryX=0;entryY=0.5;entryDx=0;entryDy=0;strokeColor=#788AA3;align=center;verticalAlign=middle;fontFamily=Helvetica;fontSize=11;fontColor=#46495D;labelBackgroundColor=default;startFill=0;endArrow=none;fillColor=#B2C9AB;" edge="1" parent="1" source="QP1Ot8ZAfSgMZhXPvZnd-65" target="QP1Ot8ZAfSgMZhXPvZnd-1">
          <mxGeometry relative="1" as="geometry" />
        </mxCell>
        <mxCell id="QP1Ot8ZAfSgMZhXPvZnd-65" value="&lt;u&gt;ISBN&lt;/u&gt;" style="rounded=1;whiteSpace=wrap;html=1;labelBackgroundColor=none;fillColor=#B2C9AB;strokeColor=#788AA3;fontColor=#46495D;shape=ellipse;perimeter=ellipsePerimeter;" vertex="1" parent="1">
          <mxGeometry x="30" y="180" width="120" height="40" as="geometry" />
        </mxCell>
        <mxCell id="QP1Ot8ZAfSgMZhXPvZnd-67" value="borrowing and returning" style="rounded=1;whiteSpace=wrap;html=1;labelBackgroundColor=none;fillColor=#B2C9AB;strokeColor=#788AA3;fontColor=#46495D;" vertex="1" parent="1">
          <mxGeometry x="370" y="-30" width="120" height="60" as="geometry" />
        </mxCell>
      </root>
    </mxGraphModel>
  </diagram>
</mxfile>
